<svg xmlns="http://www.w3.org/2000/svg" viewBox="0 0 32 32" width="256" height="256" shape-rendering="crispEdges">
<title>asset_patient_records</title>
<rect x="0" y="0" width="32" height="1" fill="#101726"/>
<rect x="0" y="31" width="32" height="1" fill="#101726"/>
<rect x="0" y="1" width="1" height="1" fill="#101726"/>
<rect x="31" y="1" width="1" height="1" fill="#101726"/>
<rect x="0" y="2" width="1" height="1" fill="#101726"/>
<rect x="31" y="2" width="1" height="1" fill="#101726"/>
<rect x="0" y="3" width="1" height="1" fill="#101726"/>
<rect x="31" y="3" width="1" height="1" fill="#101726"/>
<rect x="0" y="4" width="1" height="1" fill="#101726"/>
<rect x="31" y="4" width="1" height="1" fill="#101726"/>
<rect x="0" y="5" width="1" height="1" fill="#101726"/>
<rect x="31" y="5" width="1" height="1" fill="#101726"/>
<rect x="0" y="6" width="1" height="1" fill="#101726"/>
<rect x="31" y="6" width="1" height="1" fill="#101726"/>
<rect x="0" y="7" width="1" height="1" fill="#101726"/>
<rect x="31" y="7" width="1" height="1" fill="#101726"/>
<rect x="0" y="8" width="1" height="1" fill="#101726"/>
<rect x="31" y="8" width="1" height="1" fill="#101726"/>
<rect x="0" y="9" width="1" height="1" fill="#101726"/>
<rect x="31" y="9" width="1" height="1" fill="#101726"/>
<rect x="0" y="10" width="1" height="1" fill="#101726"/>
<rect x="31" y="10" width="1" height="1" fill="#101726"/>
<rect x="0" y="11" width="1" height="1" fill="#101726"/>
<rect x="31" y="11" width="1" height="1" fill="#101726"/>
<rect x="0" y="12" width="1" height="1" fill="#101726"/>
<rect x="31" y="12" width="1" height="1" fill="#101726"/>
<rect x="0" y="13" width="1" height="1" fill="#101726"/>
<rect x="31" y="13" width="1" height="1" fill="#101726"/>
<rect x="0" y="14" width="1" height="1" fill="#101726"/>
<rect x="31" y="14" width="1" height="1" fill="#101726"/>
<rect x="0" y="15" width="1" height="1" fill="#101726"/>
<rect x="31" y="15" width="1" height="1" fill="#101726"/>
<rect x="0" y="16" width="1" height="1" fill="#101726"/>
<rect x="31" y="16" width="1" height="1" fill="#101726"/>
<rect x="0" y="17" width="1" height="1" fill="#101726"/>
<rect x="31" y="17" width="1" height="1" fill="#101726"/>
<rect x="0" y="18" width="1" height="1" fill="#101726"/>
<rect x="31" y="18" width="1" height="1" fill="#101726"/>
<rect x="0" y="19" width="1" height="1" fill="#101726"/>
<rect x="31" y="19" width="1" height="1" fill="#101726"/>
<rect x="0" y="20" width="1" height="1" fill="#101726"/>
<rect x="31" y="20" width="1" height="1" fill="#101726"/>
<rect x="0" y="21" width="1" height="1" fill="#101726"/>
<rect x="31" y="21" width="1" height="1" fill="#101726"/>
<rect x="0" y="22" width="1" height="1" fill="#101726"/>
<rect x="31" y="22" width="1" height="1" fill="#101726"/>
<rect x="0" y="23" width="1" height="1" fill="#101726"/>
<rect x="31" y="23" width="1" height="1" fill="#101726"/>
<rect x="0" y="24" width="1" height="1" fill="#101726"/>
<rect x="31" y="24" width="1" height="1" fill="#101726"/>
<rect x="0" y="25" width="1" height="1" fill="#101726"/>
<rect x="31" y="25" width="1" height="1" fill="#101726"/>
<rect x="0" y="26" width="1" height="1" fill="#101726"/>
<rect x="31" y="26" width="1" height="1" fill="#101726"/>
<rect x="0" y="27" width="1" height="1" fill="#101726"/>
<rect x="31" y="27" width="1" height="1" fill="#101726"/>
<rect x="0" y="28" width="1" height="1" fill="#101726"/>
<rect x="31" y="28" width="1" height="1" fill="#101726"/>
<rect x="0" y="29" width="1" height="1" fill="#101726"/>
<rect x="31" y="29" width="1" height="1" fill="#101726"/>
<rect x="0" y="30" width="1" height="1" fill="#101726"/>
<rect x="31" y="30" width="1" height="1" fill="#101726"/>
<rect x="7" y="9" width="18" height="1" fill="#0a0f1f"/>
<rect x="7" y="10" width="1" height="1" fill="#0a0f1f"/>
<rect x="24" y="10" width="1" height="1" fill="#0a0f1f"/>
<rect x="7" y="11" width="1" height="1" fill="#0a0f1f"/>
<rect x="24" y="11" width="1" height="1" fill="#0a0f1f"/>
<rect x="7" y="12" width="1" height="1" fill="#0a0f1f"/>
<rect x="24" y="12" width="1" height="1" fill="#0a0f1f"/>
<rect x="7" y="14" width="7" height="1" fill="#0a0f1f"/>
<rect x="18" y="14" width="7" height="1" fill="#0a0f1f"/>
<rect x="7" y="15" width="1" height="1" fill="#0a0f1f"/>
<rect x="24" y="15" width="1" height="1" fill="#0a0f1f"/>
<rect x="7" y="16" width="1" height="1" fill="#0a0f1f"/>
<rect x="24" y="16" width="1" height="1" fill="#0a0f1f"/>
<rect x="7" y="17" width="1" height="1" fill="#0a0f1f"/>
<rect x="24" y="17" width="1" height="1" fill="#0a0f1f"/>
<rect x="7" y="19" width="18" height="1" fill="#0a0f1f"/>
<rect x="7" y="20" width="1" height="1" fill="#0a0f1f"/>
<rect x="24" y="20" width="1" height="1" fill="#0a0f1f"/>
<rect x="7" y="21" width="1" height="1" fill="#0a0f1f"/>
<rect x="24" y="21" width="1" height="1" fill="#0a0f1f"/>
<rect x="7" y="22" width="1" height="1" fill="#0a0f1f"/>
<rect x="24" y="22" width="1" height="1" fill="#0a0f1f"/>
<rect x="8" y="10" width="1" height="1" fill="#3b4a67"/>
<rect x="23" y="10" width="1" height="1" fill="#3b4a67"/>
<rect x="8" y="11" width="7" height="1" fill="#3b4a67"/>
<rect x="17" y="11" width="7" height="1" fill="#3b4a67"/>
<rect x="8" y="12" width="6" height="1" fill="#3b4a67"/>
<rect x="18" y="12" width="6" height="1" fill="#3b4a67"/>
<rect x="8" y="15" width="1" height="1" fill="#3b4a67"/>
<rect x="23" y="15" width="1" height="1" fill="#3b4a67"/>
<rect x="8" y="16" width="16" height="1" fill="#3b4a67"/>
<rect x="8" y="17" width="16" height="1" fill="#3b4a67"/>
<rect x="8" y="20" width="1" height="1" fill="#3b4a67"/>
<rect x="23" y="20" width="1" height="1" fill="#3b4a67"/>
<rect x="8" y="21" width="16" height="1" fill="#3b4a67"/>
<rect x="8" y="22" width="16" height="1" fill="#3b4a67"/>
<rect x="9" y="10" width="14" height="1" fill="#d7263d"/>
<rect x="9" y="15" width="5" height="1" fill="#d7263d"/>
<rect x="18" y="15" width="5" height="1" fill="#d7263d"/>
<rect x="9" y="20" width="14" height="1" fill="#d7263d"/>
<rect x="15" y="11" width="2" height="1" fill="#e8f1ff"/>
<rect x="14" y="12" width="4" height="1" fill="#e8f1ff"/>
<rect x="15" y="13" width="2" height="1" fill="#e8f1ff"/>
<rect x="14" y="14" width="1" height="1" fill="#1c263b"/>
<rect x="17" y="14" width="1" height="1" fill="#1c263b"/>
<rect x="14" y="15" width="1" height="1" fill="#1c263b"/>
<rect x="17" y="15" width="1" height="1" fill="#1c263b"/>
<rect x="14" y="13" width="1" height="1" fill="#1c263b"/>
<rect x="17" y="13" width="1" height="1" fill="#1c263b"/>
<rect x="15" y="14" width="2" height="1" fill="#ffd166"/>
<rect x="15" y="15" width="2" height="1" fill="#ffd166"/>
<rect x="6" y="11" width="1" height="1" fill="#9fb3c8"/>
<rect x="25" y="11" width="1" height="1" fill="#9fb3c8"/>
<rect x="6" y="16" width="1" height="1" fill="#9fb3c8"/>
<rect x="25" y="16" width="1" height="1" fill="#9fb3c8"/>
<rect x="6" y="21" width="1" height="1" fill="#9fb3c8"/>
<rect x="25" y="21" width="1" height="1" fill="#9fb3c8"/>
</svg>