<svg xmlns="http://www.w3.org/2000/svg" viewBox="0 0 32 32" width="256" height="256" shape-rendering="crispEdges">
<title>hidden_trojan</title>
<rect x="0" y="0" width="1" height="1" fill="#101726"/>
<rect x="31" y="0" width="1" height="1" fill="#101726"/>
<rect x="8" y="4" width="16" height="1" fill="#0a0f1f"/>
<rect x="8" y="5" width="1" height="1" fill="#0a0f1f"/>
<rect x="9" y="5" width="10" height="1" fill="#3b4a67"/>
<rect x="19" y="5" width="2" height="1" fill="#5c6f91"/>
<rect x="21" y="5" width="2" height="1" fill="#e8f1ff"/>
<rect x="23" y="5" width="1" height="1" fill="#0a0f1f"/>
<rect x="8" y="6" width="1" height="1" fill="#0a0f1f"/>
<rect x="9" y="6" width="4" height="1" fill="#3b4a67"/>
<rect x="13" y="6" width="2" height="1" fill="#1c263b"/>
<rect x="15" y="6" width="2" height="1" fill="#ffd166"/>
<rect x="17" y="6" width="2" height="1" fill="#1c263b"/>
<rect x="19" y="6" width="1" height="1" fill="#5c6f91"/>
<rect x="20" y="6" width="2" height="1" fill="#e8f1ff"/>
<rect x="22" y="6" width="1" height="1" fill="#5c6f91"/>
<rect x="23" y="6" width="1" height="1" fill="#0a0f1f"/>
<rect x="8" y="7" width="1" height="1" fill="#0a0f1f"/>
<rect x="9" y="7" width="1" height="1" fill="#3b4a67"/>
<rect x="10" y="7" width="13" height="1" fill="#5c6f91"/>
<rect x="23" y="7" width="1" height="1" fill="#0a0f1f"/>
<rect x="8" y="8" width="1" height="1" fill="#0a0f1f"/>
<rect x="9" y="8" width="1" height="1" fill="#3b4a67"/>
<rect x="10" y="8" width="1" height="1" fill="#5c6f91"/>
<rect x="11" y="8" width="10" height="1" fill="#1c263b"/>
<rect x="21" y="8" width="1" height="1" fill="#5c6f91"/>
<rect x="22" y="8" width="2" height="1" fill="#0a0f1f"/>
<rect x="8" y="9" width="1" height="1" fill="#0a0f1f"/>
<rect x="9" y="9" width="1" height="1" fill="#3b4a67"/>
<rect x="10" y="9" width="1" height="1" fill="#2de2e6"/>
<rect x="11" y="9" width="5" height="1" fill="#1c263b"/>
<rect x="16" y="9" width="2" height="1" fill="#ff4d6d"/>
<rect x="18" y="9" width="3" height="1" fill="#1c263b"/>
<rect x="21" y="9" width="2" height="1" fill="#3b4a67"/>
<rect x="23" y="9" width="1" height="1" fill="#0a0f1f"/>
<rect x="8" y="10" width="1" height="1" fill="#0a0f1f"/>
<rect x="9" y="10" width="1" height="1" fill="#3b4a67"/>
<rect x="10" y="10" width="1" height="1" fill="#5c6f91"/>
<rect x="11" y="10" width="1" height="1" fill="#1c263b"/>
<rect x="12" y="10" width="1" height="1" fill="#5c6f91"/>
<rect x="13" y="10" width="2" height="1" fill="#ff4d6d"/>
<rect x="15" y="10" width="1" height="1" fill="#5c6f91"/>
<rect x="16" y="10" width="3" height="1" fill="#ff4d6d"/>
<rect x="19" y="10" width="1" height="1" fill="#1c263b"/>
<rect x="20" y="10" width="1" height="1" fill="#2de2e6"/>
<rect x="21" y="10" width="2" height="1" fill="#3b4a67"/>
<rect x="23" y="10" width="1" height="1" fill="#0a0f1f"/>
<rect x="8" y="11" width="1" height="1" fill="#0a0f1f"/>
<rect x="9" y="11" width="1" height="1" fill="#3b4a67"/>
<rect x="10" y="11" width="1" height="1" fill="#5c6f91"/>
<rect x="11" y="11" width="1" height="1" fill="#1c263b"/>
<rect x="12" y="11" width="4" height="1" fill="#ff4d6d"/>
<rect x="16" y="11" width="1" height="1" fill="#e8f1ff"/>
<rect x="17" y="11" width="3" height="1" fill="#ff4d6d"/>
<rect x="20" y="11" width="1" height="1" fill="#1c263b"/>
<rect x="21" y="11" width="2" height="1" fill="#3b4a67"/>
<rect x="23" y="11" width="1" height="1" fill="#0a0f1f"/>
<rect x="8" y="12" width="1" height="1" fill="#0a0f1f"/>
<rect x="9" y="12" width="1" height="1" fill="#3b4a67"/>
<rect x="10" y="12" width="1" height="1" fill="#5c6f91"/>
<rect x="11" y="12" width="2" height="1" fill="#1c263b"/>
<rect x="13" y="12" width="4" height="1" fill="#ff4d6d"/>
<rect x="17" y="12" width="1" height="1" fill="#5c6f91"/>
<rect x="18" y="12" width="2" height="1" fill="#ff4d6d"/>
<rect x="20" y="12" width="1" height="1" fill="#1c263b"/>
<rect x="21" y="12" width="1" height="1" fill="#e8f1ff"/>
<rect x="22" y="12" width="1" height="1" fill="#3b4a67"/>
<rect x="23" y="12" width="1" height="1" fill="#0a0f1f"/>
<rect x="8" y="13" width="1" height="1" fill="#0a0f1f"/>
<rect x="9" y="13" width="1" height="1" fill="#3b4a67"/>
<rect x="10" y="13" width="1" height="1" fill="#5c6f91"/>
<rect x="11" y="13" width="1" height="1" fill="#ff4d6d"/>
<rect x="12" y="13" width="2" height="1" fill="#1c263b"/>
<rect x="14" y="13" width="5" height="1" fill="#ff4d6d"/>
<rect x="19" y="13" width="2" height="1" fill="#1c263b"/>
<rect x="21" y="13" width="2" height="1" fill="#3b4a67"/>
<rect x="23" y="13" width="1" height="1" fill="#0a0f1f"/>
<rect x="8" y="14" width="1" height="1" fill="#0a0f1f"/>
<rect x="9" y="14" width="1" height="1" fill="#3b4a67"/>
<rect x="10" y="14" width="1" height="1" fill="#5c6f91"/>
<rect x="11" y="14" width="3" height="1" fill="#1c263b"/>
<rect x="14" y="14" width="5" height="1" fill="#ff4d6d"/>
<rect x="19" y="14" width="1" height="1" fill="#1c263b"/>
<rect x="20" y="14" width="1" height="1" fill="#ff4d6d"/>
<rect x="21" y="14" width="2" height="1" fill="#3b4a67"/>
<rect x="23" y="14" width="1" height="1" fill="#0a0f1f"/>
<rect x="8" y="15" width="1" height="1" fill="#0a0f1f"/>
<rect x="9" y="15" width="1" height="1" fill="#3b4a67"/>
<rect x="10" y="15" width="1" height="1" fill="#5c6f91"/>
<rect x="11" y="15" width="2" height="1" fill="#1c263b"/>
<rect x="13" y="15" width="1" height="1" fill="#ff4d6d"/>
<rect x="14" y="15" width="1" height="1" fill="#5c6f91"/>
<rect x="15" y="15" width="3" height="1" fill="#ff4d6d"/>
<rect x="18" y="15" width="3" height="1" fill="#1c263b"/>
<rect x="21" y="15" width="2" height="1" fill="#3b4a67"/>
<rect x="23" y="15" width="1" height="1" fill="#0a0f1f"/>
<rect x="8" y="16" width="1" height="1" fill="#0a0f1f"/>
<rect x="9" y="16" width="1" height="1" fill="#2de2e6"/>
<rect x="10" y="16" width="1" height="1" fill="#5c6f91"/>
<rect x="11" y="16" width="10" height="1" fill="#1c263b"/>
<rect x="21" y="16" width="1" height="1" fill="#3b4a67"/>
<rect x="22" y="16" width="1" height="1" fill="#2de2e6"/>
<rect x="23" y="16" width="1" height="1" fill="#0a0f1f"/>
<rect x="8" y="17" width="1" height="1" fill="#0a0f1f"/>
<rect x="9" y="17" width="1" height="1" fill="#3b4a67"/>
<rect x="10" y="17" width="1" height="1" fill="#5c6f91"/>
<rect x="11" y="17" width="3" height="1" fill="#2de2e6"/>
<rect x="14" y="17" width="1" height="1" fill="#1c263b"/>
<rect x="15" y="17" width="1" height="1" fill="#2de2e6"/>
<rect x="16" y="17" width="1" height="1" fill="#1c263b"/>
<rect x="17" y="17" width="4" height="1" fill="#2de2e6"/>
<rect x="21" y="17" width="2" height="1" fill="#3b4a67"/>
<rect x="23" y="17" width="1" height="1" fill="#0a0f1f"/>
<rect x="8" y="18" width="1" height="1" fill="#0a0f1f"/>
<rect x="9" y="18" width="1" height="1" fill="#3b4a67"/>
<rect x="10" y="18" width="1" height="1" fill="#5c6f91"/>
<rect x="11" y="18" width="1" height="1" fill="#2de2e6"/>
<rect x="12" y="18" width="4" height="1" fill="#1c263b"/>
<rect x="16" y="18" width="1" height="1" fill="#2de2e6"/>
<rect x="17" y="18" width="1" height="1" fill="#1c263b"/>
<rect x="18" y="18" width="1" height="1" fill="#2de2e6"/>
<rect x="19" y="18" width="1" height="1" fill="#1c263b"/>
<rect x="20" y="18" width="1" height="1" fill="#5c6f91"/>
<rect x="21" y="18" width="2" height="1" fill="#3b4a67"/>
<rect x="23" y="18" width="1" height="1" fill="#0a0f1f"/>
<rect x="8" y="19" width="1" height="1" fill="#0a0f1f"/>
<rect x="9" y="19" width="1" height="1" fill="#3b4a67"/>
<rect x="10" y="19" width="1" height="1" fill="#5c6f91"/>
<rect x="11" y="19" width="3" height="1" fill="#2de2e6"/>
<rect x="14" y="19" width="1" height="1" fill="#1c263b"/>
<rect x="15" y="19" width="1" height="1" fill="#2de2e6"/>
<rect x="16" y="19" width="1" height="1" fill="#1c263b"/>
<rect x="17" y="19" width="4" height="1" fill="#2de2e6"/>
<rect x="21" y="19" width="2" height="1" fill="#3b4a67"/>
<rect x="23" y="19" width="1" height="1" fill="#0a0f1f"/>
<rect x="8" y="20" width="1" height="1" fill="#0a0f1f"/>
<rect x="9" y="20" width="2" height="1" fill="#3b4a67"/>
<rect x="11" y="20" width="3" height="1" fill="#2de2e6"/>
<rect x="14" y="20" width="2" height="1" fill="#3b4a67"/>
<rect x="16" y="20" width="1" height="1" fill="#2de2e6"/>
<rect x="17" y="20" width="1" height="1" fill="#3b4a67"/>
<rect x="18" y="20" width="3" height="1" fill="#2de2e6"/>
<rect x="21" y="20" width="2" height="1" fill="#3b4a67"/>
<rect x="23" y="20" width="1" height="1" fill="#0a0f1f"/>
<rect x="8" y="21" width="1" height="1" fill="#0a0f1f"/>
<rect x="9" y="21" width="14" height="1" fill="#3b4a67"/>
<rect x="23" y="21" width="1" height="1" fill="#0a0f1f"/>
<rect x="8" y="22" width="1" height="1" fill="#0a0f1f"/>
<rect x="9" y="22" width="14" height="1" fill="#3b4a67"/>
<rect x="23" y="22" width="1" height="1" fill="#0a0f1f"/>
<rect x="8" y="23" width="16" height="1" fill="#0a0f1f"/>
<rect x="9" y="24" width="14" height="1" fill="#0a0f1f"/>
<rect x="10" y="25" width="12" height="1" fill="#1c263b"/>
<rect x="11" y="26" width="10" height="1" fill="#3b4a67"/>
<rect x="2" y="28" width="28" height="1" fill="#101726"/>
<rect x="2" y="29" width="28" height="1" fill="#101726"/>
<rect x="3" y="30" width="4" height="1" fill="#1c263b"/>
<rect x="7" y="30" width="1" height="1" fill="#3b4a67"/>
<rect x="8" y="30" width="2" height="1" fill="#1c263b"/>
<rect x="10" y="30" width="1" height="1" fill="#3b4a67"/>
<rect x="11" y="30" width="2" height="1" fill="#1c263b"/>
<rect x="13" y="30" width="1" height="1" fill="#3b4a67"/>
<rect x="14" y="30" width="2" height="1" fill="#1c263b"/>
<rect x="16" y="30" width="1" height="1" fill="#3b4a67"/>
<rect x="17" y="30" width="2" height="1" fill="#1c263b"/>
<rect x="19" y="30" width="1" height="1" fill="#3b4a67"/>
<rect x="20" y="30" width="2" height="1" fill="#1c263b"/>
<rect x="22" y="30" width="1" height="1" fill="#3b4a67"/>
<rect x="23" y="30" width="2" height="1" fill="#1c263b"/>
<rect x="25" y="30" width="1" height="1" fill="#3b4a67"/>
<rect x="26" y="30" width="3" height="1" fill="#1c263b"/>
<rect x="0" y="31" width="1" height="1" fill="#101726"/>
<rect x="4" y="31" width="24" height="1" fill="#0a0f1f"/>
<rect x="31" y="31" width="1" height="1" fill="#101726"/>
</svg>